<?xml version="1.0" encoding="utf-8"?>
<!-- Generator: Adobe Illustrator 16.0.0, SVG Export Plug-In . SVG Version: 6.00 Build 0)  -->
<!DOCTYPE svg PUBLIC "-//W3C//DTD SVG 1.1//EN" "https://www.w3.org/Graphics/SVG/1.1/DTD/svg11.dtd">
<svg version="1.1" id="Capa_1" xmlns="https://www.w3.org/2000/svg" xmlns:xlink="https://www.w3.org/1999/xlink" x="0px" y="0px"
	 width="300.18px" height="150.09px" viewBox="0 0 300.18 150.09" enable-background="new 0 0 300.18 150.09" xml:space="preserve">
<g opacity="0.05">
	<polygon points="0,127.591 0,142.599 0,142.599 6.811,150.09 20.457,150.09 0,127.591 	"/>
	<path d="M88.699,150.09h13.641l20.465-22.501l20.463,22.501h13.646l20.468-22.501l20.467,22.501h13.637l-61.393-67.529
		L88.699,150.09z M150.093,142.6l-20.468-22.516l20.468-22.514l20.466,22.514L150.093,142.6z"/>
	<polygon points="300.18,142.599 300.18,142.599 300.18,127.591 279.722,150.09 293.362,150.09 	"/>
	<polygon points="0,67.552 0,82.559 0,82.559 6.826,75.055 0,67.552 	"/>
	<polygon points="0,7.511 0,7.511 0,22.519 0,22.519 20.457,0 20.464,0 6.811,0 	"/>
	<polygon points="0,37.53 0,37.53 0,52.539 0,52.539 20.471,75.055 0,97.57 0,97.57 0,112.579 0,112.579 34.101,150.09 
		47.752,150.09 6.826,105.074 34.115,75.055 6.826,45.036 47.752,0 47.752,0 34.101,0 	"/>
	<path d="M95.515,97.57l20.468-22.516L95.515,52.539L75.048,75.055L95.515,97.57z M102.337,75.055l-6.822,7.506l-6.821-7.506
		l6.821-7.505L102.337,75.055z"/>
	<path d="M20.471,45.036L40.938,67.55l6.822-7.505L34.115,45.036l6.822-7.507l13.645,15.01l6.822-7.503L47.76,30.025l6.822-7.506
		l13.645,15.01l6.821-7.504l-13.644-15.01l6.822-7.506l20.467,22.516L47.76,75.055l40.934,45.029L68.227,142.6l-6.822-7.505
		l13.644-15.011l-6.821-7.504l-13.645,15.009l-6.822-7.505l13.645-15.01l-6.822-7.504l-13.645,15.01l-6.822-7.506l13.645-15.01
		l-6.822-7.504l-20.467,22.514L61.4,150.09h13.651l68.219-75.035L75.052,0H61.4L20.471,45.036z M129.625,75.055l-34.11,37.525
		l-34.11-37.525l34.11-37.525L129.625,75.055z"/>
	<path d="M184.204,75.055L204.67,97.57l20.467-22.516L204.67,52.539L184.204,75.055z M204.67,82.561l-6.822-7.506l6.822-7.505
		l6.822,7.505L204.67,82.561z"/>
	<path d="M177.382,22.52L156.914,0h-13.646l-20.463,22.52L102.34,0H88.699l0,0l61.394,67.55L211.485,0l0,0h-13.637L177.382,22.52z
		 M150.093,52.539l-20.468-22.514L150.093,7.51l20.466,22.516L150.093,52.539z"/>
	<path d="M156.916,75.055l68.219,75.035h13.65l40.93-45.016l-20.467-22.514l-6.822,7.504l13.645,15.01l-6.822,7.506l-13.645-15.01
		l-6.822,7.504l13.645,15.01l-6.822,7.505l-13.645-15.009l-6.822,7.504l13.645,15.011l-6.822,7.505l-20.467-22.516l40.934-45.029
		l-40.934-45.029L231.959,7.51l6.822,7.506l-13.645,15.01l6.822,7.504l13.645-15.01l6.822,7.506l-13.645,15.011l6.822,7.503
		l13.645-15.01l6.822,7.507l-13.645,15.009l6.822,7.505l20.467-22.514L238.785,0h-13.65L156.916,75.055z M238.781,75.055
		L204.67,112.58l-34.111-37.525l34.111-37.525L238.781,75.055z"/>
	<polygon points="300.18,82.559 300.18,67.552 293.359,75.055 	"/>
	<polygon points="252.434,0 293.359,45.036 266.07,75.055 293.359,105.074 252.434,150.09 266.074,150.09 300.18,112.579 
		300.18,112.579 300.18,97.57 300.18,97.57 300.18,97.57 279.715,75.055 300.18,52.539 300.18,52.539 300.18,37.53 300.18,37.53 
		300.18,37.53 266.074,0 252.434,0 	"/>
	<polygon points="279.722,0 279.722,0 300.18,22.519 300.18,7.511 300.18,7.511 300.18,7.511 293.362,0 	"/>
</g>
</svg>
